<?xml version="1.0" encoding="UTF-8" standalone="no"?><svg xmlns="http://www.w3.org/2000/svg" xmlns:xlink="http://www.w3.org/1999/xlink" contentStyleType="text/css" height="576px" preserveAspectRatio="none" style="width:649px;height:576px;background:#FFFFFF;" version="1.1" viewBox="0 0 649 576" width="649px" zoomAndPan="magnify"><defs/><g><!--MD5=[117b17dac8a13e03a8462d7b192cd46e]
cluster simple-factory--><g id="cluster_simple-factory"><path d="M8.5,6 L122.5,6 A3.75,3.75 0 0 1 125,8.5 L132,28.2969 L639.5,28.2969 A2.5,2.5 0 0 1 642,30.7969 L642,497.5 A2.5,2.5 0 0 1 639.5,500 L8.5,500 A2.5,2.5 0 0 1 6,497.5 L6,8.5 A2.5,2.5 0 0 1 8.5,6 " fill="none" style="stroke:#000000;stroke-width:1.5;"/><line style="stroke:#000000;stroke-width:1.5;" x1="6" x2="132" y1="28.2969" y2="28.2969"/><text fill="#000000" font-family="sans-serif" font-size="14" font-weight="bold" lengthAdjust="spacing" textLength="113" x="10" y="20.9951">simple-factory</text></g><g id="elem_ProductA"><rect fill="#F1F1F1" height="36.2969" style="stroke:#181818;stroke-width:0.5;" width="77" x="74.5" y="203.5"/><text fill="#000000" font-family="sans-serif" font-size="14" lengthAdjust="spacing" textLength="63" x="81.5" y="218.4951">ProductA</text><line style="stroke:#181818;stroke-width:0.5;" x1="75.5" x2="150.5" y1="223.7969" y2="223.7969"/></g><!--MD5=[edfdcdaee1db1792532306a3c911de04]
class simple-factory.customProductA--><g id="elem_simple-factory.customProductA"><rect codeLine="9" fill="#F1F1F1" height="64.2969" id="simple-factory.customProductA" rx="2.5" ry="2.5" style="stroke:#181818;stroke-width:0.5;" width="147" x="22.5" y="379"/><ellipse cx="37.5" cy="395" fill="#7FFFD4" rx="11" ry="11" style="stroke:#181818;stroke-width:1.0;"/><path d="M36.9844,395.5625 Q35.125,394.8594 34.4688,394.0938 Q33.8281,393.3125 33.8281,392 Q33.8281,390.3125 34.9063,389.3438 Q35.9844,388.375 37.8594,388.375 Q38.7188,388.375 39.5625,388.5781 Q40.4219,388.7656 41.2656,389.1563 L41.2656,391.5469 Q40.4844,390.9844 39.6563,390.7031 Q38.8438,390.4063 38.0469,390.4063 Q37.1719,390.4063 36.6875,390.7656 Q36.2188,391.125 36.2188,391.7813 Q36.2188,392.2969 36.5625,392.6406 Q36.9063,392.9688 38,393.375 L39.0625,393.7813 Q40.5469,394.3281 41.25,395.2344 Q41.9688,396.1406 41.9688,397.5156 Q41.9688,399.3906 40.8594,400.3125 Q39.75,401.2344 37.5,401.2344 Q36.5781,401.2344 35.6563,401.0156 Q34.7344,400.7969 33.875,400.375 L33.875,397.8438 Q34.8438,398.5313 35.7656,398.875 Q36.6875,399.2188 37.5781,399.2188 Q38.4844,399.2188 38.9844,398.8125 Q39.4844,398.3906 39.4844,397.6563 Q39.4844,397.0938 39.1406,396.6875 Q38.8125,396.2656 38.1875,396.0156 L36.9844,395.5625 Z " fill="#000000"/><text fill="#000000" font-family="sans-serif" font-size="14" lengthAdjust="spacing" textLength="115" x="51.5" y="399.8467">customProductA</text><line style="stroke:#181818;stroke-width:0.5;" x1="23.5" x2="168.5" y1="411" y2="411"/><ellipse cx="33.5" cy="424.6484" fill="none" rx="3" ry="3" style="stroke:#038048;stroke-width:1.0;"/><text fill="#000000" font-family="sans-serif" font-size="14" lengthAdjust="spacing" textLength="116" x="42.5" y="427.9951">concreteProduct</text><line style="stroke:#181818;stroke-width:0.5;" x1="23.5" x2="168.5" y1="435.2969" y2="435.2969"/></g><!--MD5=[2d8519c7f202fcac76ab64acbcec9284]
class simple-factory.concreteProduct--><g id="elem_simple-factory.concreteProduct"><rect codeLine="13" fill="#F1F1F1" height="145.7813" id="simple-factory.concreteProduct" rx="2.5" ry="2.5" style="stroke:#181818;stroke-width:0.5;" width="238" x="205" y="338"/><ellipse cx="261.75" cy="354" fill="#7FFFD4" rx="11" ry="11" style="stroke:#181818;stroke-width:1.0;"/><path d="M261.2344,354.5625 Q259.375,353.8594 258.7188,353.0938 Q258.0781,352.3125 258.0781,351 Q258.0781,349.3125 259.1563,348.3438 Q260.2344,347.375 262.1094,347.375 Q262.9688,347.375 263.8125,347.5781 Q264.6719,347.7656 265.5156,348.1563 L265.5156,350.5469 Q264.7344,349.9844 263.9063,349.7031 Q263.0938,349.4063 262.2969,349.4063 Q261.4219,349.4063 260.9375,349.7656 Q260.4688,350.125 260.4688,350.7813 Q260.4688,351.2969 260.8125,351.6406 Q261.1563,351.9688 262.25,352.375 L263.3125,352.7813 Q264.7969,353.3281 265.5,354.2344 Q266.2188,355.1406 266.2188,356.5156 Q266.2188,358.3906 265.1094,359.3125 Q264,360.2344 261.75,360.2344 Q260.8281,360.2344 259.9063,360.0156 Q258.9844,359.7969 258.125,359.375 L258.125,356.8438 Q259.0938,357.5313 260.0156,357.875 Q260.9375,358.2188 261.8281,358.2188 Q262.7344,358.2188 263.2344,357.8125 Q263.7344,357.3906 263.7344,356.6563 Q263.7344,356.0938 263.3906,355.6875 Q263.0625,355.2656 262.4375,355.0156 L261.2344,354.5625 Z " fill="#000000"/><text fill="#000000" font-family="sans-serif" font-size="14" lengthAdjust="spacing" textLength="116" x="282.25" y="358.8467">concreteProduct</text><line style="stroke:#181818;stroke-width:0.5;" x1="206" x2="442" y1="370" y2="370"/><rect fill="none" height="6" style="stroke:#C82930;stroke-width:1.0;" width="6" x="213" y="380.6484"/><text fill="#000000" font-family="sans-serif" font-size="14" lengthAdjust="spacing" textLength="111" x="225" y="386.9951">behaviour string</text><rect fill="none" height="6" style="stroke:#C82930;stroke-width:1.0;" width="6" x="213" y="396.9453"/><text fill="#000000" font-family="sans-serif" font-size="14" lengthAdjust="spacing" textLength="70" x="225" y="403.292">feature int</text><line style="stroke:#181818;stroke-width:0.5;" x1="206" x2="442" y1="410.5938" y2="410.5938"/><ellipse cx="216" cy="424.2422" fill="#84BE84" rx="3" ry="3" style="stroke:#038048;stroke-width:1.0;"/><text fill="#000000" font-family="sans-serif" font-size="14" lengthAdjust="spacing" textLength="212" x="225" y="427.5889">setBehaviour(behaviour string)</text><ellipse cx="216" cy="440.5391" fill="#84BE84" rx="3" ry="3" style="stroke:#038048;stroke-width:1.0;"/><text fill="#000000" font-family="sans-serif" font-size="14" lengthAdjust="spacing" textLength="145" x="225" y="443.8857">getBehaviour() string</text><ellipse cx="216" cy="456.8359" fill="#84BE84" rx="3" ry="3" style="stroke:#038048;stroke-width:1.0;"/><text fill="#000000" font-family="sans-serif" font-size="14" lengthAdjust="spacing" textLength="155" x="225" y="460.1826">setFeature(feature int)</text><ellipse cx="216" cy="473.1328" fill="#84BE84" rx="3" ry="3" style="stroke:#038048;stroke-width:1.0;"/><text fill="#000000" font-family="sans-serif" font-size="14" lengthAdjust="spacing" textLength="107" x="225" y="476.4795">getFeature() int</text></g><!--MD5=[f516bc6965428b3b8695647542527747]
class simple-factory.customProductB--><g id="elem_simple-factory.customProductB"><rect codeLine="24" fill="#F1F1F1" height="64.2969" id="simple-factory.customProductB" rx="2.5" ry="2.5" style="stroke:#181818;stroke-width:0.5;" width="148" x="478" y="379"/><ellipse cx="493" cy="395" fill="#7FFFD4" rx="11" ry="11" style="stroke:#181818;stroke-width:1.0;"/><path d="M492.4844,395.5625 Q490.625,394.8594 489.9688,394.0938 Q489.3281,393.3125 489.3281,392 Q489.3281,390.3125 490.4063,389.3438 Q491.4844,388.375 493.3594,388.375 Q494.2188,388.375 495.0625,388.5781 Q495.9219,388.7656 496.7656,389.1563 L496.7656,391.5469 Q495.9844,390.9844 495.1563,390.7031 Q494.3438,390.4063 493.5469,390.4063 Q492.6719,390.4063 492.1875,390.7656 Q491.7188,391.125 491.7188,391.7813 Q491.7188,392.2969 492.0625,392.6406 Q492.4063,392.9688 493.5,393.375 L494.5625,393.7813 Q496.0469,394.3281 496.75,395.2344 Q497.4688,396.1406 497.4688,397.5156 Q497.4688,399.3906 496.3594,400.3125 Q495.25,401.2344 493,401.2344 Q492.0781,401.2344 491.1563,401.0156 Q490.2344,400.7969 489.375,400.375 L489.375,397.8438 Q490.3438,398.5313 491.2656,398.875 Q492.1875,399.2188 493.0781,399.2188 Q493.9844,399.2188 494.4844,398.8125 Q494.9844,398.3906 494.9844,397.6563 Q494.9844,397.0938 494.6406,396.6875 Q494.3125,396.2656 493.6875,396.0156 L492.4844,395.5625 Z " fill="#000000"/><text fill="#000000" font-family="sans-serif" font-size="14" lengthAdjust="spacing" textLength="116" x="507" y="399.8467">customProductB</text><line style="stroke:#181818;stroke-width:0.5;" x1="479" x2="625" y1="411" y2="411"/><ellipse cx="489" cy="424.6484" fill="none" rx="3" ry="3" style="stroke:#038048;stroke-width:1.0;"/><text fill="#000000" font-family="sans-serif" font-size="14" lengthAdjust="spacing" textLength="116" x="498" y="427.9951">concreteProduct</text><line style="stroke:#181818;stroke-width:0.5;" x1="479" x2="625" y1="435.2969" y2="435.2969"/></g><g id="elem_ProductB"><rect fill="#F1F1F1" height="36.2969" style="stroke:#181818;stroke-width:0.5;" width="78" x="495" y="203.5"/><text fill="#000000" font-family="sans-serif" font-size="14" lengthAdjust="spacing" textLength="64" x="502" y="218.4951">ProductB</text><line style="stroke:#181818;stroke-width:0.5;" x1="496" x2="572" y1="223.7969" y2="223.7969"/></g><!--MD5=[7eedf7b64a54d2f1d43e25ae0944469e]
class simple-factory.client--><g id="elem_simple-factory.client"><rect codeLine="33" fill="#F1F1F1" height="64.2969" id="simple-factory.client" rx="2.5" ry="2.5" style="stroke:#181818;stroke-width:0.5;" width="340" x="154" y="41"/><ellipse cx="301.25" cy="57" fill="#ADD1B2" rx="11" ry="11" style="stroke:#181818;stroke-width:1.0;"/><path d="M304.2188,62.6406 Q303.6406,62.9375 303,63.0781 Q302.3594,63.2344 301.6563,63.2344 Q299.1563,63.2344 297.8281,61.5938 Q296.5156,59.9375 296.5156,56.8125 Q296.5156,53.6875 297.8281,52.0313 Q299.1563,50.375 301.6563,50.375 Q302.3594,50.375 303,50.5313 Q303.6563,50.6875 304.2188,50.9844 L304.2188,53.7031 Q303.5938,53.125 303,52.8594 Q302.4063,52.5781 301.7813,52.5781 Q300.4375,52.5781 299.75,53.6563 Q299.0625,54.7188 299.0625,56.8125 Q299.0625,58.9063 299.75,59.9844 Q300.4375,61.0469 301.7813,61.0469 Q302.4063,61.0469 303,60.7813 Q303.5938,60.5 304.2188,59.9219 L304.2188,62.6406 Z " fill="#000000"/><text fill="#000000" font-family="sans-serif" font-size="14" lengthAdjust="spacing" textLength="37" x="321.75" y="61.8467">client</text><line style="stroke:#181818;stroke-width:0.5;" x1="155" x2="493" y1="73" y2="73"/><line style="stroke:#181818;stroke-width:0.5;" x1="155" x2="493" y1="81" y2="81"/><ellipse cx="165" cy="94.6484" fill="#84BE84" rx="3" ry="3" style="stroke:#038048;stroke-width:1.0;"/><text fill="#000000" font-family="sans-serif" font-size="14" lengthAdjust="spacing" textLength="314" x="174" y="97.9951">createProduct(productType) iAbstractProduct</text></g><!--MD5=[921c9f089443c927f8a5083af868e4a9]
class simple-factory.iAbstractProduct--><g id="elem_simple-factory.iAbstractProduct"><rect codeLine="37" fill="#F1F1F1" height="113.1875" id="simple-factory.iAbstractProduct" rx="2.5" ry="2.5" style="stroke:#181818;stroke-width:0.5;" width="238" x="205" y="165"/><ellipse cx="262.75" cy="181" fill="#B4A7E5" rx="11" ry="11" style="stroke:#181818;stroke-width:1.0;"/><path d="M258.6719,176.7656 L258.6719,174.6094 L266.0625,174.6094 L266.0625,176.7656 L263.5938,176.7656 L263.5938,184.8438 L266.0625,184.8438 L266.0625,187 L258.6719,187 L258.6719,184.8438 L261.1406,184.8438 L261.1406,176.7656 L258.6719,176.7656 Z " fill="#000000"/><text fill="#000000" font-family="sans-serif" font-size="14" font-style="italic" lengthAdjust="spacing" textLength="114" x="283.25" y="185.8467">iAbstractProduct</text><line style="stroke:#181818;stroke-width:0.5;" x1="206" x2="442" y1="197" y2="197"/><line style="stroke:#181818;stroke-width:0.5;" x1="206" x2="442" y1="205" y2="205"/><ellipse cx="216" cy="218.6484" fill="#84BE84" rx="3" ry="3" style="stroke:#038048;stroke-width:1.0;"/><text fill="#000000" font-family="sans-serif" font-size="14" lengthAdjust="spacing" textLength="212" x="225" y="221.9951">setBehaviour(behaviour string)</text><ellipse cx="216" cy="234.9453" fill="#84BE84" rx="3" ry="3" style="stroke:#038048;stroke-width:1.0;"/><text fill="#000000" font-family="sans-serif" font-size="14" lengthAdjust="spacing" textLength="145" x="225" y="238.292">getBehaviour() string</text><ellipse cx="216" cy="251.2422" fill="#84BE84" rx="3" ry="3" style="stroke:#038048;stroke-width:1.0;"/><text fill="#000000" font-family="sans-serif" font-size="14" lengthAdjust="spacing" textLength="155" x="225" y="254.5889">setFeature(feature int)</text><ellipse cx="216" cy="267.5391" fill="#84BE84" rx="3" ry="3" style="stroke:#038048;stroke-width:1.0;"/><text fill="#000000" font-family="sans-serif" font-size="14" lengthAdjust="spacing" textLength="107" x="225" y="270.8857">getFeature() int</text></g><g id="elem_N2"><path d="M229.5,544 L229.5,569.1328 L418.5,569.1328 L418.5,554 L408.5,544 L229.5,544 " fill="#FEFFDD" style="stroke:#181818;stroke-width:0.5;"/><path d="M408.5,544 L408.5,554 L418.5,554 L408.5,544 " fill="#FEFFDD" style="stroke:#181818;stroke-width:1.0;"/><text fill="#000000" font-family="sans-serif" font-size="13" lengthAdjust="spacing" textLength="168" x="235.5" y="561.0669">abstract product definition</text></g><!--MD5=[b60180cf69c695891b63ac232f3ce04f]
link simple-factory.client to simple-factory.iAbstractProduct--><g id="link_simple-factory.client_simple-factory.iAbstractProduct"><path codeLine="47" d="M324,105.07 C324,120.96 324,140.87 324,159.66 " fill="none" id="simple-factory.client-to-simple-factory.iAbstractProduct" style="stroke:#181818;stroke-width:1.0;"/><polygon fill="#181818" points="324,164.93,328,155.93,324,159.93,320,155.93,324,164.93" style="stroke:#181818;stroke-width:1.0;"/></g><!--MD5=[36f7634056696f301da754ac23c0813a]
reverse link simple-factory.iAbstractProduct to simple-factory.concreteProduct--><g id="link_simple-factory.iAbstractProduct_simple-factory.concreteProduct"><path codeLine="49" d="M324,298.68 C324,311.59 324,324.96 324,337.77 " fill="none" id="simple-factory.iAbstractProduct-backto-simple-factory.concreteProduct" style="stroke:#181818;stroke-width:1.0;stroke-dasharray:7.0,7.0;"/><polygon fill="none" points="317,298.25,324,278.25,331,298.25,317,298.25" style="stroke:#181818;stroke-width:1.0;"/></g><!--MD5=[25e8647edb0a205edffc752e040e4604]
reverse link simple-factory.concreteProduct to simple-factory.customProductB--><g id="link_simple-factory.concreteProduct_simple-factory.customProductB"><path codeLine="51" d="M456.5,411 C463.58,411 470.65,411 477.72,411 " fill="none" id="simple-factory.concreteProduct-backto-simple-factory.customProductB" style="stroke:#181818;stroke-width:1.0;"/><polygon fill="#181818" points="443.34,411,449.34,415,455.34,411,449.34,407,443.34,411" style="stroke:#181818;stroke-width:1.0;"/></g><!--MD5=[68d2b31baa09cb27d26b7b25fd47b8f5]
reverse link simple-factory.customProductA to simple-factory.concreteProduct--><g id="link_simple-factory.customProductA_simple-factory.concreteProduct"><path codeLine="52" d="M183.01,411 C190.29,411 197.56,411 204.83,411 " fill="none" id="simple-factory.customProductA-backto-simple-factory.concreteProduct" style="stroke:#181818;stroke-width:1.0;"/><polygon fill="#181818" points="169.92,411,175.92,415,181.92,411,175.92,407,169.92,411" style="stroke:#181818;stroke-width:1.0;"/></g><!--MD5=[7fb7b4b8041f422f3529317b318d8256]
link simple-factory.client to ProductA--><g id="link_simple-factory.client_ProductA"><path codeLine="55" d="M275.68,105.13 C249.23,122.41 216.04,144.49 187,165 C170.95,176.33 153.34,189.51 139.33,200.18 " fill="none" id="simple-factory.client-to-ProductA" style="stroke:#181818;stroke-width:1.0;stroke-dasharray:7.0,7.0;"/><polygon fill="#181818" points="135.1,203.41,144.6769,201.1114,139.069,200.369,139.8113,194.7611,135.1,203.41" style="stroke:#181818;stroke-width:1.0;"/></g><!--MD5=[94002066498cec97342579ffb6d39262]
reverse link ProductA to simple-factory.customProductA--><g id="link_ProductA_simple-factory.customProductA"><path codeLine="56" d="M110.97,244.89 C107.95,278.24 102.25,341.05 98.82,378.85 " fill="none" id="ProductA-backto-simple-factory.customProductA" style="stroke:#181818;stroke-width:1.0;stroke-dasharray:7.0,7.0;"/><polygon fill="#181818" points="111.43,239.8,106.6227,248.3959,110.9722,244.779,114.5891,249.1285,111.43,239.8" style="stroke:#181818;stroke-width:1.0;"/></g><!--MD5=[fadb9aa3deeb4cff10a72eff0fa8ba25]
link simple-factory.client to ProductB--><g id="link_simple-factory.client_ProductB"><path codeLine="57" d="M372.38,105.06 C398.83,122.31 432.03,144.4 461,165 C476.87,176.29 494.25,189.46 508.06,200.14 " fill="none" id="simple-factory.client-to-ProductB" style="stroke:#181818;stroke-width:1.0;stroke-dasharray:7.0,7.0;"/><polygon fill="#181818" points="512.23,203.37,507.5685,194.6941,508.2786,200.3062,502.6665,201.0164,512.23,203.37" style="stroke:#181818;stroke-width:1.0;"/></g><!--MD5=[e11fc4b5723a85ab1b83f694050d1eb2]
reverse link ProductB to simple-factory.customProductB--><g id="link_ProductB_simple-factory.customProductB"><path codeLine="58" d="M536.15,244.89 C539.35,278.24 545.38,341.05 549.01,378.85 " fill="none" id="ProductB-backto-simple-factory.customProductB" style="stroke:#181818;stroke-width:1.0;stroke-dasharray:7.0,7.0;"/><polygon fill="#181818" points="535.66,239.8,532.5541,249.1463,536.1462,244.7763,540.5162,248.3684,535.66,239.8" style="stroke:#181818;stroke-width:1.0;"/></g><!--MD5=[8e98c65869ffa664cb2e937158f7bf23]
reverse link simple-factory.customProductA to N2--><g id="link_simple-factory.customProductA_N2"><path codeLine="61" d="M122.44,447.41 C139.06,467.55 162.03,491.89 187,508 C213.02,524.79 245.66,536.41 272.56,543.95 " fill="none" id="simple-factory.customProductA-backto-N2" style="stroke:#181818;stroke-width:1.0;stroke-dasharray:1.0,3.0;"/><polygon fill="#181818" points="119.2,443.44,121.809,452.937,122.3685,447.3079,127.9976,447.8674,119.2,443.44" style="stroke:#181818;stroke-width:1.0;"/></g><!--MD5=[62e96d6d3f281c7770cb2cdaf138d590]
link N2 to simple-factory.customProductB--><g id="link_N2_simple-factory.customProductB"><path codeLine="62" d="M375.44,543.95 C402.34,536.41 434.98,524.79 461,508 C485.97,491.89 508.94,467.55 525.56,447.41 " fill="none" id="N2-to-simple-factory.customProductB" style="stroke:#181818;stroke-width:1.0;stroke-dasharray:1.0,3.0;"/><polygon fill="#181818" points="528.8,443.44,520.0024,447.8674,525.6315,447.3079,526.191,452.937,528.8,443.44" style="stroke:#181818;stroke-width:1.0;"/></g><!--MD5=[a4d3ddbf9652ddcdb2bc359d965b170f]
@startuml go-dsgn-pttrn-simple-factory

namespace simple-factory {

    object ProductA {
/'         - behaviour string
        - feature int '/
    }

   class customProductA << (S,Aquamarine) >> {
        + concreteProduct
    }

    class concreteProduct << (S,Aquamarine) >> {
        - behaviour string
        - feature int

        + setBehaviour(behaviour string) 
        + getBehaviour() string
        + setFeature(feature int) 
        + getFeature() int

    }

    class customProductB << (S,Aquamarine) >> {
        + concreteProduct
    }

    object ProductB {
/'         - behaviour string
        - feature int '/
    }

    class client {
        + createProduct(productType) iAbstractProduct
    }

    interface iAbstractProduct  {

        + setBehaviour(behaviour string) 
        + getBehaviour() string
        + setFeature(feature int) 
        + getFeature() int

    }
}

"simple-factory.client" - -> "simple-factory.iAbstractProduct"

"simple-factory.iAbstractProduct" <|.. "simple-factory.concreteProduct"

"simple-factory.concreteProduct" *- "simple-factory.customProductB"
"simple-factory.customProductA" *- "simple-factory.concreteProduct"


"simple-factory.client" ..> "ProductA"
ProductA <.. "simple-factory.customProductA"
"simple-factory.client" ..> "ProductB"
ProductB <.. "simple-factory.customProductB"

note "abstract product definition" as N2
"simple-factory.customProductA" <.[dotted]. N2
N2 .[dotted].> "simple-factory.customProductB"

@enduml

@startuml go-dsgn-pttrn-simple-factory

namespace simple-factory {

    object ProductA {
    }

   class customProductA << (S,Aquamarine) >> {
        + concreteProduct
    }

    class concreteProduct << (S,Aquamarine) >> {
        - behaviour string
        - feature int

        + setBehaviour(behaviour string) 
        + getBehaviour() string
        + setFeature(feature int) 
        + getFeature() int

    }

    class customProductB << (S,Aquamarine) >> {
        + concreteProduct
    }

    object ProductB {
    }

    class client {
        + createProduct(productType) iAbstractProduct
    }

    interface iAbstractProduct  {

        + setBehaviour(behaviour string) 
        + getBehaviour() string
        + setFeature(feature int) 
        + getFeature() int

    }
}

"simple-factory.client" - -> "simple-factory.iAbstractProduct"

"simple-factory.iAbstractProduct" <|.. "simple-factory.concreteProduct"

"simple-factory.concreteProduct" *- "simple-factory.customProductB"
"simple-factory.customProductA" *- "simple-factory.concreteProduct"


"simple-factory.client" ..> "ProductA"
ProductA <.. "simple-factory.customProductA"
"simple-factory.client" ..> "ProductB"
ProductB <.. "simple-factory.customProductB"

note "abstract product definition" as N2
"simple-factory.customProductA" <.[dotted]. N2
N2 .[dotted].> "simple-factory.customProductB"

@enduml

PlantUML version 1.2022.13(Sat Nov 19 13:22:17 UTC 2022)
(GPL source distribution)
Java Runtime: OpenJDK Runtime Environment
JVM: OpenJDK 64-Bit Server VM
Default Encoding: UTF-8
Language: en
Country: null
--></g></svg>