<?xml version="1.0" encoding="UTF-8" standalone="no"?><svg xmlns="http://www.w3.org/2000/svg" xmlns:xlink="http://www.w3.org/1999/xlink" contentStyleType="text/css" height="507px" preserveAspectRatio="none" style="width:556px;height:507px;background:#FFFFFF;" version="1.1" viewBox="0 0 556 507" width="556px" zoomAndPan="magnify"><defs/><g><!--MD5=[117b17dac8a13e03a8462d7b192cd46e]
cluster simple-factory--><g id="cluster_simple-factory"><path d="M8.5,6 L122.5,6 A3.75,3.75 0 0 1 125,8.5 L132,28.2969 L546.5,28.2969 A2.5,2.5 0 0 1 549,30.7969 L549,497.5 A2.5,2.5 0 0 1 546.5,500 L8.5,500 A2.5,2.5 0 0 1 6,497.5 L6,8.5 A2.5,2.5 0 0 1 8.5,6 " fill="none" style="stroke:#000000;stroke-width:1.5;"/><line style="stroke:#000000;stroke-width:1.5;" x1="6" x2="132" y1="28.2969" y2="28.2969"/><text fill="#000000" font-family="sans-serif" font-size="14" font-weight="bold" lengthAdjust="spacing" textLength="113" x="10" y="20.9951">simple-factory</text></g><!--MD5=[7eedf7b64a54d2f1d43e25ae0944469e]
class simple-factory.client--><g id="elem_simple-factory.client"><rect codeLine="4" fill="#F1F1F1" height="64.2969" id="simple-factory.client" rx="2.5" ry="2.5" style="stroke:#181818;stroke-width:0.5;" width="264" x="145" y="41"/><ellipse cx="254.25" cy="57" fill="#ADD1B2" rx="11" ry="11" style="stroke:#181818;stroke-width:1.0;"/><path d="M257.2188,62.6406 Q256.6406,62.9375 256,63.0781 Q255.3594,63.2344 254.6563,63.2344 Q252.1563,63.2344 250.8281,61.5938 Q249.5156,59.9375 249.5156,56.8125 Q249.5156,53.6875 250.8281,52.0313 Q252.1563,50.375 254.6563,50.375 Q255.3594,50.375 256,50.5313 Q256.6563,50.6875 257.2188,50.9844 L257.2188,53.7031 Q256.5938,53.125 256,52.8594 Q255.4063,52.5781 254.7813,52.5781 Q253.4375,52.5781 252.75,53.6563 Q252.0625,54.7188 252.0625,56.8125 Q252.0625,58.9063 252.75,59.9844 Q253.4375,61.0469 254.7813,61.0469 Q255.4063,61.0469 256,60.7813 Q256.5938,60.5 257.2188,59.9219 L257.2188,62.6406 Z " fill="#000000"/><text fill="#000000" font-family="sans-serif" font-size="14" lengthAdjust="spacing" textLength="37" x="274.75" y="61.8467">client</text><line style="stroke:#181818;stroke-width:0.5;" x1="146" x2="408" y1="73" y2="73"/><line style="stroke:#181818;stroke-width:0.5;" x1="146" x2="408" y1="81" y2="81"/><ellipse cx="156" cy="94.6484" fill="#84BE84" rx="3" ry="3" style="stroke:#038048;stroke-width:1.0;"/><text fill="#000000" font-family="sans-serif" font-size="14" lengthAdjust="spacing" textLength="238" x="165" y="97.9951">createProduct(...) iAbstractProduct</text></g><g id="elem_ProductA"><rect fill="#F1F1F1" height="36.2969" style="stroke:#181818;stroke-width:0.5;" width="77" x="45.5" y="203.5"/><text fill="#000000" font-family="sans-serif" font-size="14" lengthAdjust="spacing" textLength="63" x="52.5" y="218.4951">ProductA</text><line style="stroke:#181818;stroke-width:0.5;" x1="46.5" x2="121.5" y1="223.7969" y2="223.7969"/></g><!--MD5=[b459dc05b2f91805fb30c5c4b72ccd80]
class simple-factory.concreteProductA--><g id="elem_simple-factory.concreteProductA"><rect codeLine="12" fill="#F1F1F1" height="145.7813" id="simple-factory.concreteProductA" rx="2.5" ry="2.5" style="stroke:#181818;stroke-width:0.5;" width="238" x="22" y="338"/><ellipse cx="74.25" cy="354" fill="#7FFFD4" rx="11" ry="11" style="stroke:#181818;stroke-width:1.0;"/><path d="M73.7344,354.5625 Q71.875,353.8594 71.2188,353.0938 Q70.5781,352.3125 70.5781,351 Q70.5781,349.3125 71.6563,348.3438 Q72.7344,347.375 74.6094,347.375 Q75.4688,347.375 76.3125,347.5781 Q77.1719,347.7656 78.0156,348.1563 L78.0156,350.5469 Q77.2344,349.9844 76.4063,349.7031 Q75.5938,349.4063 74.7969,349.4063 Q73.9219,349.4063 73.4375,349.7656 Q72.9688,350.125 72.9688,350.7813 Q72.9688,351.2969 73.3125,351.6406 Q73.6563,351.9688 74.75,352.375 L75.8125,352.7813 Q77.2969,353.3281 78,354.2344 Q78.7188,355.1406 78.7188,356.5156 Q78.7188,358.3906 77.6094,359.3125 Q76.5,360.2344 74.25,360.2344 Q73.3281,360.2344 72.4063,360.0156 Q71.4844,359.7969 70.625,359.375 L70.625,356.8438 Q71.5938,357.5313 72.5156,357.875 Q73.4375,358.2188 74.3281,358.2188 Q75.2344,358.2188 75.7344,357.8125 Q76.2344,357.3906 76.2344,356.6563 Q76.2344,356.0938 75.8906,355.6875 Q75.5625,355.2656 74.9375,355.0156 L73.7344,354.5625 Z " fill="#000000"/><text fill="#000000" font-family="sans-serif" font-size="14" lengthAdjust="spacing" textLength="125" x="94.75" y="358.8467">concreteProductA</text><line style="stroke:#181818;stroke-width:0.5;" x1="23" x2="259" y1="370" y2="370"/><rect fill="none" height="6" style="stroke:#C82930;stroke-width:1.0;" width="6" x="30" y="380.6484"/><text fill="#000000" font-family="sans-serif" font-size="14" lengthAdjust="spacing" textLength="120" x="42" y="386.9951">behaviourA string</text><rect fill="none" height="6" style="stroke:#C82930;stroke-width:1.0;" width="6" x="30" y="396.9453"/><text fill="#000000" font-family="sans-serif" font-size="14" lengthAdjust="spacing" textLength="79" x="42" y="403.292">featureA int</text><line style="stroke:#181818;stroke-width:0.5;" x1="23" x2="259" y1="410.5938" y2="410.5938"/><ellipse cx="33" cy="424.2422" fill="#84BE84" rx="3" ry="3" style="stroke:#038048;stroke-width:1.0;"/><text fill="#000000" font-family="sans-serif" font-size="14" lengthAdjust="spacing" textLength="212" x="42" y="427.5889">setBehaviour(behaviour string)</text><ellipse cx="33" cy="440.5391" fill="#84BE84" rx="3" ry="3" style="stroke:#038048;stroke-width:1.0;"/><text fill="#000000" font-family="sans-serif" font-size="14" lengthAdjust="spacing" textLength="145" x="42" y="443.8857">getBehaviour() string</text><ellipse cx="33" cy="456.8359" fill="#84BE84" rx="3" ry="3" style="stroke:#038048;stroke-width:1.0;"/><text fill="#000000" font-family="sans-serif" font-size="14" lengthAdjust="spacing" textLength="155" x="42" y="460.1826">setFeature(feature int)</text><ellipse cx="33" cy="473.1328" fill="#84BE84" rx="3" ry="3" style="stroke:#038048;stroke-width:1.0;"/><text fill="#000000" font-family="sans-serif" font-size="14" lengthAdjust="spacing" textLength="107" x="42" y="476.4795">getFeature() int</text></g><!--MD5=[a9b8d11da45d7088f1c41c6646bde98f]
class simple-factory.concreteProductB--><g id="elem_simple-factory.concreteProductB"><rect codeLine="22" fill="#F1F1F1" height="145.7813" id="simple-factory.concreteProductB" rx="2.5" ry="2.5" style="stroke:#181818;stroke-width:0.5;" width="238" x="295" y="338"/><ellipse cx="346.75" cy="354" fill="#7FFFD4" rx="11" ry="11" style="stroke:#181818;stroke-width:1.0;"/><path d="M346.2344,354.5625 Q344.375,353.8594 343.7188,353.0938 Q343.0781,352.3125 343.0781,351 Q343.0781,349.3125 344.1563,348.3438 Q345.2344,347.375 347.1094,347.375 Q347.9688,347.375 348.8125,347.5781 Q349.6719,347.7656 350.5156,348.1563 L350.5156,350.5469 Q349.7344,349.9844 348.9063,349.7031 Q348.0938,349.4063 347.2969,349.4063 Q346.4219,349.4063 345.9375,349.7656 Q345.4688,350.125 345.4688,350.7813 Q345.4688,351.2969 345.8125,351.6406 Q346.1563,351.9688 347.25,352.375 L348.3125,352.7813 Q349.7969,353.3281 350.5,354.2344 Q351.2188,355.1406 351.2188,356.5156 Q351.2188,358.3906 350.1094,359.3125 Q349,360.2344 346.75,360.2344 Q345.8281,360.2344 344.9063,360.0156 Q343.9844,359.7969 343.125,359.375 L343.125,356.8438 Q344.0938,357.5313 345.0156,357.875 Q345.9375,358.2188 346.8281,358.2188 Q347.7344,358.2188 348.2344,357.8125 Q348.7344,357.3906 348.7344,356.6563 Q348.7344,356.0938 348.3906,355.6875 Q348.0625,355.2656 347.4375,355.0156 L346.2344,354.5625 Z " fill="#000000"/><text fill="#000000" font-family="sans-serif" font-size="14" lengthAdjust="spacing" textLength="126" x="367.25" y="358.8467">concreteProductB</text><line style="stroke:#181818;stroke-width:0.5;" x1="296" x2="532" y1="370" y2="370"/><rect fill="none" height="6" style="stroke:#C82930;stroke-width:1.0;" width="6" x="303" y="380.6484"/><text fill="#000000" font-family="sans-serif" font-size="14" lengthAdjust="spacing" textLength="121" x="315" y="386.9951">behaviourB string</text><rect fill="none" height="6" style="stroke:#C82930;stroke-width:1.0;" width="6" x="303" y="396.9453"/><text fill="#000000" font-family="sans-serif" font-size="14" lengthAdjust="spacing" textLength="80" x="315" y="403.292">featureB int</text><line style="stroke:#181818;stroke-width:0.5;" x1="296" x2="532" y1="410.5938" y2="410.5938"/><ellipse cx="306" cy="424.2422" fill="#84BE84" rx="3" ry="3" style="stroke:#038048;stroke-width:1.0;"/><text fill="#000000" font-family="sans-serif" font-size="14" lengthAdjust="spacing" textLength="212" x="315" y="427.5889">setBehaviour(behaviour string)</text><ellipse cx="306" cy="440.5391" fill="#84BE84" rx="3" ry="3" style="stroke:#038048;stroke-width:1.0;"/><text fill="#000000" font-family="sans-serif" font-size="14" lengthAdjust="spacing" textLength="145" x="315" y="443.8857">getBehaviour() string</text><ellipse cx="306" cy="456.8359" fill="#84BE84" rx="3" ry="3" style="stroke:#038048;stroke-width:1.0;"/><text fill="#000000" font-family="sans-serif" font-size="14" lengthAdjust="spacing" textLength="155" x="315" y="460.1826">setFeature(feature int)</text><ellipse cx="306" cy="473.1328" fill="#84BE84" rx="3" ry="3" style="stroke:#038048;stroke-width:1.0;"/><text fill="#000000" font-family="sans-serif" font-size="14" lengthAdjust="spacing" textLength="107" x="315" y="476.4795">getFeature() int</text></g><g id="elem_ProductB"><rect fill="#F1F1F1" height="36.2969" style="stroke:#181818;stroke-width:0.5;" width="78" x="431" y="203.5"/><text fill="#000000" font-family="sans-serif" font-size="14" lengthAdjust="spacing" textLength="64" x="438" y="218.4951">ProductB</text><line style="stroke:#181818;stroke-width:0.5;" x1="432" x2="508" y1="223.7969" y2="223.7969"/></g><!--MD5=[921c9f089443c927f8a5083af868e4a9]
class simple-factory.iAbstractProduct--><g id="elem_simple-factory.iAbstractProduct"><rect codeLine="37" fill="#F1F1F1" height="113.1875" id="simple-factory.iAbstractProduct" rx="2.5" ry="2.5" style="stroke:#181818;stroke-width:0.5;" width="238" x="158" y="165"/><ellipse cx="215.75" cy="181" fill="#B4A7E5" rx="11" ry="11" style="stroke:#181818;stroke-width:1.0;"/><path d="M211.6719,176.7656 L211.6719,174.6094 L219.0625,174.6094 L219.0625,176.7656 L216.5938,176.7656 L216.5938,184.8438 L219.0625,184.8438 L219.0625,187 L211.6719,187 L211.6719,184.8438 L214.1406,184.8438 L214.1406,176.7656 L211.6719,176.7656 Z " fill="#000000"/><text fill="#000000" font-family="sans-serif" font-size="14" font-style="italic" lengthAdjust="spacing" textLength="114" x="236.25" y="185.8467">iAbstractProduct</text><line style="stroke:#181818;stroke-width:0.5;" x1="159" x2="395" y1="197" y2="197"/><line style="stroke:#181818;stroke-width:0.5;" x1="159" x2="395" y1="205" y2="205"/><ellipse cx="169" cy="218.6484" fill="#84BE84" rx="3" ry="3" style="stroke:#038048;stroke-width:1.0;"/><text fill="#000000" font-family="sans-serif" font-size="14" lengthAdjust="spacing" textLength="212" x="178" y="221.9951">setBehaviour(behaviour string)</text><ellipse cx="169" cy="234.9453" fill="#84BE84" rx="3" ry="3" style="stroke:#038048;stroke-width:1.0;"/><text fill="#000000" font-family="sans-serif" font-size="14" lengthAdjust="spacing" textLength="145" x="178" y="238.292">getBehaviour() string</text><ellipse cx="169" cy="251.2422" fill="#84BE84" rx="3" ry="3" style="stroke:#038048;stroke-width:1.0;"/><text fill="#000000" font-family="sans-serif" font-size="14" lengthAdjust="spacing" textLength="155" x="178" y="254.5889">setFeature(feature int)</text><ellipse cx="169" cy="267.5391" fill="#84BE84" rx="3" ry="3" style="stroke:#038048;stroke-width:1.0;"/><text fill="#000000" font-family="sans-serif" font-size="14" lengthAdjust="spacing" textLength="107" x="178" y="270.8857">getFeature() int</text></g><!--MD5=[b60180cf69c695891b63ac232f3ce04f]
link simple-factory.client to simple-factory.iAbstractProduct--><g id="link_simple-factory.client_simple-factory.iAbstractProduct"><path codeLine="49" d="M277,105.07 C277,120.96 277,140.87 277,159.66 " fill="none" id="simple-factory.client-to-simple-factory.iAbstractProduct" style="stroke:#181818;stroke-width:1.0;"/><polygon fill="#181818" points="277,164.93,281,155.93,277,159.93,273,155.93,277,164.93" style="stroke:#181818;stroke-width:1.0;"/></g><!--MD5=[7fb7b4b8041f422f3529317b318d8256]
link simple-factory.client to ProductA--><g id="link_simple-factory.client_ProductA"><path codeLine="51" d="M225.23,105.02 C198.86,121.66 166.79,143.18 140,165 C127.15,175.47 113.92,188.46 103.55,199.24 " fill="none" id="simple-factory.client-to-ProductA" style="stroke:#181818;stroke-width:1.0;stroke-dasharray:7.0,7.0;"/><polygon fill="#181818" points="99.86,203.1,108.9716,199.3611,103.3161,199.4868,103.1904,193.8313,99.86,203.1" style="stroke:#181818;stroke-width:1.0;"/></g><!--MD5=[ce101a9796e555b9a4404ac6e51df8c5]
reverse link ProductA to simple-factory.concreteProductA--><g id="link_ProductA_simple-factory.concreteProductA"><path codeLine="52" d="M90.77,244.76 C97.75,267.73 109.01,304.78 119.1,337.98 " fill="none" id="ProductA-backto-simple-factory.concreteProductA" style="stroke:#181818;stroke-width:1.0;stroke-dasharray:7.0,7.0;"/><polygon fill="#181818" points="89.26,239.8,88.0549,249.5749,90.7164,244.5832,95.708,247.2447,89.26,239.8" style="stroke:#181818;stroke-width:1.0;"/></g><!--MD5=[fadb9aa3deeb4cff10a72eff0fa8ba25]
link simple-factory.client to ProductB--><g id="link_simple-factory.client_ProductB"><path codeLine="53" d="M328.77,105.02 C355.14,121.66 387.21,143.18 414,165 C426.85,175.47 440.08,188.46 450.45,199.24 " fill="none" id="simple-factory.client-to-ProductB" style="stroke:#181818;stroke-width:1.0;stroke-dasharray:7.0,7.0;"/><polygon fill="#181818" points="454.14,203.1,450.8096,193.8313,450.6839,199.4868,445.0284,199.3611,454.14,203.1" style="stroke:#181818;stroke-width:1.0;"/></g><!--MD5=[30f609bf497db0214f92eda3cbd08ab9]
reverse link ProductB to simple-factory.concreteProductB--><g id="link_ProductB_simple-factory.concreteProductB"><path codeLine="54" d="M463.35,244.76 C456.49,267.73 445.43,304.78 435.51,337.98 " fill="none" id="ProductB-backto-simple-factory.concreteProductB" style="stroke:#181818;stroke-width:1.0;stroke-dasharray:7.0,7.0;"/><polygon fill="#181818" points="464.83,239.8,458.4085,247.2675,463.3906,244.5883,466.0698,249.5705,464.83,239.8" style="stroke:#181818;stroke-width:1.0;"/></g><!--MD5=[e3184b6d5438ab685248be5a9f1ebe50]
reverse link simple-factory.iAbstractProduct to simple-factory.concreteProductA--><g id="link_simple-factory.iAbstractProduct_simple-factory.concreteProductA"><path codeLine="56" d="M224.78,294.5 C214.49,308.68 203.69,323.58 193.39,337.77 " fill="none" id="simple-factory.iAbstractProduct-backto-simple-factory.concreteProductA" style="stroke:#181818;stroke-width:1.0;stroke-dasharray:7.0,7.0;"/><polygon fill="none" points="219.15,290.33,236.56,278.25,230.49,298.55,219.15,290.33" style="stroke:#181818;stroke-width:1.0;"/></g><!--MD5=[3f798940cc67fc7ebb60cd04a0463661]
reverse link simple-factory.iAbstractProduct to simple-factory.concreteProductB--><g id="link_simple-factory.iAbstractProduct_simple-factory.concreteProductB"><path codeLine="57" d="M329.61,294.5 C339.97,308.68 350.85,323.58 361.22,337.77 " fill="none" id="simple-factory.iAbstractProduct-backto-simple-factory.concreteProductB" style="stroke:#181818;stroke-width:1.0;stroke-dasharray:7.0,7.0;"/><polygon fill="none" points="323.88,298.53,317.73,278.25,335.18,290.27,323.88,298.53" style="stroke:#181818;stroke-width:1.0;"/></g><!--MD5=[53fda34b6d6eb9a08bef9773b44d2c05]
@startuml go-dsgn-pttrn-simple-factory

namespace simple-factory {

    class client {
        + createProduct(...) iAbstractProduct
    }

    object ProductA {

    }

    class concreteProductA << (S,Aquamarine) >> {
        - behaviourA string
        - featureA int

        + setBehaviour(behaviour string) 
        + getBehaviour() string
        + setFeature(feature int) 
        + getFeature() int

    }
    class concreteProductB << (S,Aquamarine) >> {
        - behaviourB string
        - featureB int

        + setBehaviour(behaviour string) 
        + getBehaviour() string
        + setFeature(feature int) 
        + getFeature() int

    }

    object ProductB {

    }

    interface iAbstractProduct  {
        + setBehaviour(behaviour string) 
        + getBehaviour() string
        + setFeature(feature int) 
        + getFeature() int

    }



}

"simple-factory.client" - -> "simple-factory.iAbstractProduct"

"simple-factory.client" ..> "ProductA"
ProductA <.. "simple-factory.concreteProductA"
"simple-factory.client" ..> "ProductB"
ProductB <.. "simple-factory.concreteProductB"

"simple-factory.iAbstractProduct" <|.. "simple-factory.concreteProductA"
"simple-factory.iAbstractProduct" <|.. "simple-factory.concreteProductB"

@enduml

PlantUML version 1.2022.13(Sat Nov 19 13:22:17 UTC 2022)
(GPL source distribution)
Java Runtime: OpenJDK Runtime Environment
JVM: OpenJDK 64-Bit Server VM
Default Encoding: UTF-8
Language: en
Country: null
--></g></svg>